<?xml version="1.0" standalone="no"?>
<!DOCTYPE svg PUBLIC "-//W3C//DTD SVG 20010904//EN"
 "http://www.w3.org/TR/2001/REC-SVG-20010904/DTD/svg10.dtd">
<svg version="1.0" xmlns="http://www.w3.org/2000/svg"
 width="150.000000pt" height="150.000000pt" viewBox="0 0 150.000000 150.000000"
 preserveAspectRatio="xMidYMid meet">
<metadata>
Created by potrace 1.14, written by Peter Selinger 2001-2017
</metadata>
<g transform="translate(0.000000,150.000000) scale(0.100000,-0.100000)"
fill="#000000" stroke="none">
<path d="M0 750 l0 -750 750 0 750 0 0 750 0 750 -750 0 -750 0 0 -750z m843
413 c-18 -9 -33 -20 -33 -24 0 -3 15 -39 33 -80 l34 -73 -65 -90 c-35 -50 -65
-92 -66 -94 -2 -1 -33 41 -70 93 l-66 95 25 50 c14 27 25 54 25 60 0 13 -47
13 -55 0 -11 -18 -25 -10 -25 15 0 14 9 34 20 45 18 18 33 20 148 19 124 0
126 -1 95 -16z m-196 -363 c48 -71 91 -129 95 -130 4 0 47 58 95 130 l88 129
260 1 260 0 -33 -32 -32 -33 -187 -5 -187 -5 0 -35 0 -35 162 -3 c89 -1 162
-6 162 -11 0 -11 -42 -47 -65 -55 -11 -4 -69 -7 -130 -7 -60 1 -115 -2 -122
-7 -7 -4 -10 -16 -8 -27 2 -11 4 -26 4 -32 1 -10 30 -13 111 -13 63 0 110 -4
110 -9 0 -6 -16 -22 -35 -37 -29 -22 -49 -28 -110 -32 -62 -4 -74 -7 -78 -24
-11 -39 2 -48 64 -48 66 0 70 -11 16 -51 -23 -17 -49 -24 -94 -27 l-63 -4 -2
203 -3 204 -89 -127 c-59 -85 -93 -125 -100 -119 -6 5 -47 61 -91 125 l-80
116 -3 -200 -2 -200 -50 0 c-27 0 -61 5 -77 11 -30 11 -73 47 -73 61 0 4 27 8
60 8 l60 0 0 35 0 35 -52 0 c-74 0 -119 15 -153 50 l-29 30 117 0 117 0 0 35
c0 19 -3 35 -7 36 -5 0 -60 2 -123 3 -100 1 -120 5 -152 24 -20 12 -39 29 -42
37 -5 13 18 15 159 15 l165 0 0 40 0 40 -179 0 c-168 0 -180 1 -211 23 -68 45
-60 47 214 47 l255 0 88 -130z"/>
</g>
</svg>
